<svg height="64" viewBox="0 0 64 64" width="64" xmlns="http://www.w3.org/2000/svg"><path d="m973.772482 113.192708-25.209299 25.209299c-1.512007 1.512007-3.950579 1.52524-5.447809.02801s-1.484859-3.936665.027148-5.448672l25.209298-25.209298-25.209298-25.2092989c-1.512007-1.5120072-1.52524-3.9505795-.02801-5.4478095s3.936664-1.4848592 5.448671.027148l25.209299 25.2092984 25.209159-25.2091584c1.512149-1.5121472 3.951579-1.524518 5.448809-.027288s1.484 3.9358023-.02815 5.4479495l-25.209157 25.2091589 25.209157 25.209158c1.51215 1.512147 1.52452 3.951582.02729 5.448812s-3.9358 1.483997-5.447949-.02815z" fill="#48d2b3" fill-rule="evenodd" transform="translate(-942 -76)"/></svg>