<svg height="51" viewBox="0 0 97 51" width="97" xmlns="http://www.w3.org/2000/svg"><path d="m981.194343 49.349168c2.138499 0 3.872187 1.716352 3.872187 3.833066 0 2.116767-1.733688 3.834179-3.872187 3.834179h-88.25553c-2.138301 0-3.871989-1.717412-3.871989-3.834179 0-2.116714 1.733688-3.833066 3.871989-3.833066zm-9.287091 28.824686h-78.968439c-2.138301 0-3.871989-1.714921-3.871989-3.832324s1.733688-3.833702 3.871989-3.833702h78.968439c2.138499 0 3.872187 1.716299 3.872187 3.833702s-1.733688 3.832324-3.872187 3.832324zm-35.935317 21.159243h-43.033122c-2.138301 0-3.871989-1.716776-3.871989-3.832907 0-2.116767 1.733688-3.833702 3.871989-3.833702h43.033122c2.138499 0 3.872286 1.716935 3.872286 3.833702 0 2.116131-1.733787 3.832907-3.872286 3.832907z" fill="#48d2b3" fill-rule="evenodd" transform="translate(-889 -49)"/></svg>